<mxfile host="Electron" agent="Mozilla/5.0 (Windows NT 10.0; Win64; x64) AppleWebKit/537.36 (KHTML, like Gecko) draw.io/27.0.2 Chrome/134.0.6998.205 Electron/35.3.0 Safari/537.36" version="27.0.2">
  <diagram name="Page-1" id="amisVzC1LIQudUrVpFJX">
    <mxGraphModel dx="1426" dy="849" grid="1" gridSize="10" guides="1" tooltips="1" connect="1" arrows="1" fold="1" page="1" pageScale="1" pageWidth="850" pageHeight="1100" math="0" shadow="0">
      <root>
        <mxCell id="0" />
        <mxCell id="1" parent="0" />
        <mxCell id="PsruarCj88tixnqVzCpX-1" value="" style="strokeWidth=1;shadow=0;dashed=0;align=left;html=1;shape=mxgraph.mockup.containers.browserWindow;rSize=0;strokeColor=#666666;strokeColor2=#008cff;strokeColor3=#c4c4c4;mainText=,;recursiveResize=0;" parent="1" vertex="1">
          <mxGeometry x="80" y="70" width="980" height="720" as="geometry" />
        </mxCell>
        <mxCell id="PsruarCj88tixnqVzCpX-2" value="Page 1" style="strokeWidth=1;shadow=0;dashed=0;align=center;html=1;shape=mxgraph.mockup.containers.anchor;fontSize=17;fontColor=#666666;align=left;whiteSpace=wrap;" parent="PsruarCj88tixnqVzCpX-1" vertex="1">
          <mxGeometry x="60" y="12" width="110" height="26" as="geometry" />
        </mxCell>
        <mxCell id="PsruarCj88tixnqVzCpX-3" value="https://www.example.com/user?=1" style="strokeWidth=1;shadow=0;dashed=0;align=center;html=1;shape=mxgraph.mockup.containers.anchor;rSize=0;fontSize=17;fontColor=#666666;align=left;" parent="PsruarCj88tixnqVzCpX-1" vertex="1">
          <mxGeometry x="130" y="60" width="250" height="26" as="geometry" />
        </mxCell>
        <mxCell id="PsruarCj88tixnqVzCpX-5" value="Header" style="strokeWidth=1;shadow=0;dashed=0;align=center;html=1;shape=mxgraph.mockup.text.textBox;fontColor=#666666;align=left;fontSize=17;spacingLeft=4;spacingTop=-3;whiteSpace=wrap;strokeColor=#666666;mainText=" parent="PsruarCj88tixnqVzCpX-1" vertex="1">
          <mxGeometry y="110" width="980" height="90" as="geometry" />
        </mxCell>
        <UserObject label="Navigation Links" placeholders="1" name="Variable" id="PsruarCj88tixnqVzCpX-6">
          <mxCell style="text;html=1;strokeColor=none;fillColor=none;align=center;verticalAlign=middle;whiteSpace=wrap;overflow=hidden;" parent="PsruarCj88tixnqVzCpX-1" vertex="1">
            <mxGeometry x="820" y="180" width="150" height="20" as="geometry" />
          </mxCell>
        </UserObject>
        <mxCell id="PsruarCj88tixnqVzCpX-7" value="&lt;b&gt;&lt;font&gt;Assigned tasks&lt;/font&gt;&lt;/b&gt;" style="text;html=1;align=center;verticalAlign=middle;whiteSpace=wrap;rounded=0;fontSize=20;" parent="PsruarCj88tixnqVzCpX-1" vertex="1">
          <mxGeometry x="10" y="270" width="150" height="30" as="geometry" />
        </mxCell>
        <mxCell id="PsruarCj88tixnqVzCpX-27" value="" style="group" parent="PsruarCj88tixnqVzCpX-1" vertex="1" connectable="0">
          <mxGeometry x="90" y="220" width="780" height="30" as="geometry" />
        </mxCell>
        <mxCell id="PsruarCj88tixnqVzCpX-18" value="All Groups" style="strokeWidth=1;shadow=0;dashed=0;align=center;html=1;shape=mxgraph.mockup.forms.comboBox;strokeColor=#999999;fillColor=#ddeeff;align=left;fillColor2=#aaddff;mainText=;fontColor=#666666;fontSize=17;spacingLeft=3;" parent="PsruarCj88tixnqVzCpX-27" vertex="1">
          <mxGeometry x="70" width="150" height="30" as="geometry" />
        </mxCell>
        <mxCell id="PsruarCj88tixnqVzCpX-20" value="" style="rounded=1;whiteSpace=wrap;html=1;" parent="PsruarCj88tixnqVzCpX-27" vertex="1">
          <mxGeometry x="290" width="130" height="30" as="geometry" />
        </mxCell>
        <mxCell id="PsruarCj88tixnqVzCpX-21" value="Group:" style="text;html=1;align=center;verticalAlign=middle;whiteSpace=wrap;rounded=0;" parent="PsruarCj88tixnqVzCpX-27" vertex="1">
          <mxGeometry width="60" height="30" as="geometry" />
        </mxCell>
        <mxCell id="PsruarCj88tixnqVzCpX-22" value="Deadline:" style="text;html=1;align=center;verticalAlign=middle;whiteSpace=wrap;rounded=0;" parent="PsruarCj88tixnqVzCpX-27" vertex="1">
          <mxGeometry x="230" width="60" height="30" as="geometry" />
        </mxCell>
        <mxCell id="PsruarCj88tixnqVzCpX-26" value="Filter" style="strokeWidth=1;shadow=0;dashed=0;align=center;html=1;shape=mxgraph.mockup.buttons.button;strokeColor=#666666;fontColor=#ffffff;mainText=;buttonStyle=round;fontSize=17;fontStyle=1;fillColor=#008cff;whiteSpace=wrap;" parent="PsruarCj88tixnqVzCpX-27" vertex="1">
          <mxGeometry x="660" width="120" height="30" as="geometry" />
        </mxCell>
        <mxCell id="DUG7guWKxzSryjcp6mbN-30" value="" style="rounded=1;whiteSpace=wrap;html=1;" parent="PsruarCj88tixnqVzCpX-27" vertex="1">
          <mxGeometry x="500" width="130" height="30" as="geometry" />
        </mxCell>
        <mxCell id="DUG7guWKxzSryjcp6mbN-31" value="End Date:" style="text;html=1;align=center;verticalAlign=middle;whiteSpace=wrap;rounded=0;" parent="PsruarCj88tixnqVzCpX-27" vertex="1">
          <mxGeometry x="440" width="60" height="30" as="geometry" />
        </mxCell>
        <mxCell id="DUG7guWKxzSryjcp6mbN-2" value="" style="group" parent="PsruarCj88tixnqVzCpX-1" vertex="1" connectable="0">
          <mxGeometry x="25" y="370" width="120" height="30" as="geometry" />
        </mxCell>
        <mxCell id="PsruarCj88tixnqVzCpX-10" value="Completed" style="text;html=1;align=left;verticalAlign=middle;whiteSpace=wrap;rounded=0;fontStyle=1;fontSize=16;" parent="DUG7guWKxzSryjcp6mbN-2" vertex="1">
          <mxGeometry width="120" height="30" as="geometry" />
        </mxCell>
        <mxCell id="DUG7guWKxzSryjcp6mbN-1" value="" style="triangle;whiteSpace=wrap;html=1;rotation=90;" parent="DUG7guWKxzSryjcp6mbN-2" vertex="1">
          <mxGeometry x="95" y="8.75" width="10" height="12.5" as="geometry" />
        </mxCell>
        <mxCell id="DUG7guWKxzSryjcp6mbN-5" value="" style="group" parent="PsruarCj88tixnqVzCpX-1" vertex="1" connectable="0">
          <mxGeometry x="25" y="310" width="120" height="30" as="geometry" />
        </mxCell>
        <mxCell id="PsruarCj88tixnqVzCpX-8" value="Incomplete" style="text;html=1;align=left;verticalAlign=middle;whiteSpace=wrap;rounded=0;fontStyle=1;fontSize=16;" parent="DUG7guWKxzSryjcp6mbN-5" vertex="1">
          <mxGeometry width="120" height="30" as="geometry" />
        </mxCell>
        <mxCell id="DUG7guWKxzSryjcp6mbN-4" value="" style="triangle;whiteSpace=wrap;html=1;rotation=-90;" parent="DUG7guWKxzSryjcp6mbN-5" vertex="1">
          <mxGeometry x="95" y="8.75" width="10" height="12.5" as="geometry" />
        </mxCell>
        <mxCell id="DUG7guWKxzSryjcp6mbN-6" value="" style="group" parent="PsruarCj88tixnqVzCpX-1" vertex="1" connectable="0">
          <mxGeometry x="25" y="340" width="120" height="30" as="geometry" />
        </mxCell>
        <mxCell id="PsruarCj88tixnqVzCpX-9" value="In progress" style="text;html=1;align=left;verticalAlign=middle;whiteSpace=wrap;rounded=0;fontStyle=1;fontSize=16;" parent="DUG7guWKxzSryjcp6mbN-6" vertex="1">
          <mxGeometry width="120" height="30" as="geometry" />
        </mxCell>
        <mxCell id="DUG7guWKxzSryjcp6mbN-3" value="" style="triangle;whiteSpace=wrap;html=1;rotation=-90;" parent="DUG7guWKxzSryjcp6mbN-6" vertex="1">
          <mxGeometry x="95" y="8.75" width="10" height="12.5" as="geometry" />
        </mxCell>
        <mxCell id="DUG7guWKxzSryjcp6mbN-7" value="Group 3 - Task 1" style="rounded=1;whiteSpace=wrap;html=1;fillColor=#d5e8d4;strokeColor=#82b366;" parent="PsruarCj88tixnqVzCpX-1" vertex="1">
          <mxGeometry x="25" y="440" width="155" height="40" as="geometry" />
        </mxCell>
        <mxCell id="DUG7guWKxzSryjcp6mbN-9" value="YYYY/MM/DD" style="text;html=1;align=left;verticalAlign=middle;whiteSpace=wrap;rounded=0;fontStyle=1" parent="PsruarCj88tixnqVzCpX-1" vertex="1">
          <mxGeometry x="30" y="410" width="60" height="30" as="geometry" />
        </mxCell>
        <mxCell id="DUG7guWKxzSryjcp6mbN-10" value="Group 3 - Task 1" style="rounded=1;whiteSpace=wrap;html=1;fillColor=#d5e8d4;strokeColor=#82b366;" parent="PsruarCj88tixnqVzCpX-1" vertex="1">
          <mxGeometry x="200" y="440" width="155" height="40" as="geometry" />
        </mxCell>
        <mxCell id="DUG7guWKxzSryjcp6mbN-11" value="Group 3 - Task 1" style="rounded=1;whiteSpace=wrap;html=1;fillColor=#d5e8d4;strokeColor=#82b366;" parent="PsruarCj88tixnqVzCpX-1" vertex="1">
          <mxGeometry x="370" y="440" width="155" height="40" as="geometry" />
        </mxCell>
        <mxCell id="DUG7guWKxzSryjcp6mbN-12" value="Group 3 - Task 1" style="rounded=1;whiteSpace=wrap;html=1;fillColor=#d5e8d4;strokeColor=#82b366;" parent="PsruarCj88tixnqVzCpX-1" vertex="1">
          <mxGeometry x="540" y="440" width="155" height="40" as="geometry" />
        </mxCell>
        <mxCell id="DUG7guWKxzSryjcp6mbN-13" value="Group 3 - Task 1" style="rounded=1;whiteSpace=wrap;html=1;fillColor=#d5e8d4;strokeColor=#82b366;" parent="PsruarCj88tixnqVzCpX-1" vertex="1">
          <mxGeometry x="710" y="440" width="155" height="40" as="geometry" />
        </mxCell>
        <mxCell id="DUG7guWKxzSryjcp6mbN-14" value="YYYY/MM/DD" style="text;html=1;align=left;verticalAlign=middle;whiteSpace=wrap;rounded=0;fontStyle=1" parent="PsruarCj88tixnqVzCpX-1" vertex="1">
          <mxGeometry x="20" y="490" width="60" height="30" as="geometry" />
        </mxCell>
        <mxCell id="DUG7guWKxzSryjcp6mbN-16" value="Group 3 - Task 1" style="rounded=1;whiteSpace=wrap;html=1;fillColor=#d5e8d4;strokeColor=#82b366;" parent="PsruarCj88tixnqVzCpX-1" vertex="1">
          <mxGeometry x="25" y="520" width="155" height="40" as="geometry" />
        </mxCell>
        <mxCell id="DUG7guWKxzSryjcp6mbN-17" value="Group 3 - Task 1" style="rounded=1;whiteSpace=wrap;html=1;fillColor=#d5e8d4;strokeColor=#82b366;" parent="PsruarCj88tixnqVzCpX-1" vertex="1">
          <mxGeometry x="200" y="520" width="155" height="40" as="geometry" />
        </mxCell>
        <mxCell id="DUG7guWKxzSryjcp6mbN-18" value="Group 3 - Task 1" style="rounded=1;whiteSpace=wrap;html=1;fillColor=#d5e8d4;strokeColor=#82b366;" parent="PsruarCj88tixnqVzCpX-1" vertex="1">
          <mxGeometry x="370" y="520" width="155" height="40" as="geometry" />
        </mxCell>
        <mxCell id="DUG7guWKxzSryjcp6mbN-19" value="Group 3 - Task 1" style="rounded=1;whiteSpace=wrap;html=1;fillColor=#d5e8d4;strokeColor=#82b366;" parent="PsruarCj88tixnqVzCpX-1" vertex="1">
          <mxGeometry x="540" y="520" width="155" height="40" as="geometry" />
        </mxCell>
        <mxCell id="DUG7guWKxzSryjcp6mbN-20" value="Group 3 - Task 1" style="rounded=1;whiteSpace=wrap;html=1;fillColor=#d5e8d4;strokeColor=#82b366;" parent="PsruarCj88tixnqVzCpX-1" vertex="1">
          <mxGeometry x="710" y="520" width="155" height="40" as="geometry" />
        </mxCell>
        <mxCell id="DUG7guWKxzSryjcp6mbN-21" value="Group 3 - Task 1" style="rounded=1;whiteSpace=wrap;html=1;fillColor=#d5e8d4;strokeColor=#82b366;" parent="PsruarCj88tixnqVzCpX-1" vertex="1">
          <mxGeometry x="25" y="570" width="155" height="40" as="geometry" />
        </mxCell>
        <mxCell id="DUG7guWKxzSryjcp6mbN-22" value="Group 3 - Task 1" style="rounded=1;whiteSpace=wrap;html=1;fillColor=#d5e8d4;strokeColor=#82b366;" parent="PsruarCj88tixnqVzCpX-1" vertex="1">
          <mxGeometry x="200" y="570" width="155" height="40" as="geometry" />
        </mxCell>
        <mxCell id="DUG7guWKxzSryjcp6mbN-23" value="Group 3 - Task 1" style="rounded=1;whiteSpace=wrap;html=1;fillColor=#d5e8d4;strokeColor=#82b366;" parent="PsruarCj88tixnqVzCpX-1" vertex="1">
          <mxGeometry x="370" y="570" width="155" height="40" as="geometry" />
        </mxCell>
        <mxCell id="DUG7guWKxzSryjcp6mbN-24" value="Group 3 - Task 1" style="rounded=1;whiteSpace=wrap;html=1;fillColor=#d5e8d4;strokeColor=#82b366;" parent="PsruarCj88tixnqVzCpX-1" vertex="1">
          <mxGeometry x="540" y="570" width="155" height="40" as="geometry" />
        </mxCell>
        <mxCell id="DUG7guWKxzSryjcp6mbN-25" value="Group 3 - Task 1" style="rounded=1;whiteSpace=wrap;html=1;fillColor=#d5e8d4;strokeColor=#82b366;" parent="PsruarCj88tixnqVzCpX-1" vertex="1">
          <mxGeometry x="710" y="570" width="155" height="40" as="geometry" />
        </mxCell>
        <mxCell id="DUG7guWKxzSryjcp6mbN-28" value="" style="rounded=1;whiteSpace=wrap;html=1;" parent="PsruarCj88tixnqVzCpX-1" vertex="1">
          <mxGeometry x="380" y="250" width="130" height="30" as="geometry" />
        </mxCell>
        <mxCell id="DUG7guWKxzSryjcp6mbN-29" value="Start Date:" style="text;html=1;align=center;verticalAlign=middle;whiteSpace=wrap;rounded=0;" parent="PsruarCj88tixnqVzCpX-1" vertex="1">
          <mxGeometry x="320" y="250" width="60" height="30" as="geometry" />
        </mxCell>
        <mxCell id="DUG7guWKxzSryjcp6mbN-26" value="&lt;h1&gt;Clicking task&lt;/h1&gt;&lt;p&gt;Redirects to the task information page&lt;/p&gt;" style="text;html=1;spacing=5;spacingTop=-20;whiteSpace=wrap;overflow=hidden;rounded=0;fillColor=#dae8fc;strokeColor=#6c8ebf;" parent="1" vertex="1">
          <mxGeometry x="100" y="830" width="590" height="140" as="geometry" />
        </mxCell>
        <mxCell id="DUG7guWKxzSryjcp6mbN-27" value="&lt;h1&gt;Things to consider&lt;/h1&gt;&lt;p&gt;1. Sorting&lt;/p&gt;&lt;p&gt;2. The dates under the headings, completed can be completed date, deadline?&lt;/p&gt;&lt;p&gt;&lt;span style=&quot;white-space: pre;&quot;&gt;&#x9;&lt;/span&gt;in progress can be start date, deadline&lt;br&gt;&lt;/p&gt;&lt;p&gt;&lt;span style=&quot;white-space: pre;&quot;&gt;&#x9;&lt;/span&gt;incomplete can be deadline&lt;br&gt;&lt;/p&gt;&lt;p&gt;3 remove status filtering, not required wih the page layout&lt;/p&gt;&lt;p&gt;4. Can also add the filters to the applicable sections instead&lt;/p&gt;&lt;p&gt;5. Authorisation for viewing of tasks because the profiles are public&lt;/p&gt;" style="text;html=1;spacing=5;spacingTop=-20;whiteSpace=wrap;overflow=hidden;rounded=0;fillColor=#dae8fc;strokeColor=#6c8ebf;" parent="1" vertex="1">
          <mxGeometry x="100" y="980" width="590" height="240" as="geometry" />
        </mxCell>
        <mxCell id="DUG7guWKxzSryjcp6mbN-34" value="" style="strokeWidth=1;shadow=0;dashed=0;align=left;html=1;shape=mxgraph.mockup.containers.browserWindow;rSize=0;strokeColor=#666666;strokeColor2=#008cff;strokeColor3=#c4c4c4;mainText=,;recursiveResize=0;fontStyle=1" parent="1" vertex="1">
          <mxGeometry x="100" y="1260" width="980" height="910" as="geometry" />
        </mxCell>
        <mxCell id="DUG7guWKxzSryjcp6mbN-35" value="Page 1" style="strokeWidth=1;shadow=0;dashed=0;align=center;html=1;shape=mxgraph.mockup.containers.anchor;fontSize=17;fontColor=#666666;align=left;whiteSpace=wrap;" parent="DUG7guWKxzSryjcp6mbN-34" vertex="1">
          <mxGeometry x="60" y="12" width="110" height="26" as="geometry" />
        </mxCell>
        <mxCell id="DUG7guWKxzSryjcp6mbN-36" value="https://www.example.com/user?=1" style="strokeWidth=1;shadow=0;dashed=0;align=center;html=1;shape=mxgraph.mockup.containers.anchor;rSize=0;fontSize=17;fontColor=#666666;align=left;" parent="DUG7guWKxzSryjcp6mbN-34" vertex="1">
          <mxGeometry x="130" y="60" width="250" height="26" as="geometry" />
        </mxCell>
        <mxCell id="DUG7guWKxzSryjcp6mbN-37" value="Header" style="strokeWidth=1;shadow=0;dashed=0;align=center;html=1;shape=mxgraph.mockup.text.textBox;fontColor=#666666;align=left;fontSize=17;spacingLeft=4;spacingTop=-3;whiteSpace=wrap;strokeColor=#666666;mainText=" parent="DUG7guWKxzSryjcp6mbN-34" vertex="1">
          <mxGeometry y="110" width="980" height="90" as="geometry" />
        </mxCell>
        <UserObject label="Navigation Links" placeholders="1" name="Variable" id="DUG7guWKxzSryjcp6mbN-38">
          <mxCell style="text;html=1;strokeColor=none;fillColor=none;align=center;verticalAlign=middle;whiteSpace=wrap;overflow=hidden;" parent="DUG7guWKxzSryjcp6mbN-34" vertex="1">
            <mxGeometry x="820" y="180" width="150" height="20" as="geometry" />
          </mxCell>
        </UserObject>
        <mxCell id="DUG7guWKxzSryjcp6mbN-39" value="&lt;b&gt;&lt;font&gt;YYYY/MM&lt;/font&gt;&lt;/b&gt;" style="text;html=1;align=center;verticalAlign=middle;whiteSpace=wrap;rounded=0;fontSize=20;" parent="DUG7guWKxzSryjcp6mbN-34" vertex="1">
          <mxGeometry x="395" y="320" width="150" height="30" as="geometry" />
        </mxCell>
        <mxCell id="DUG7guWKxzSryjcp6mbN-40" value="" style="group" parent="DUG7guWKxzSryjcp6mbN-34" vertex="1" connectable="0">
          <mxGeometry x="90" y="220" width="780" height="30" as="geometry" />
        </mxCell>
        <mxCell id="DUG7guWKxzSryjcp6mbN-41" value="All Groups" style="strokeWidth=1;shadow=0;dashed=0;align=center;html=1;shape=mxgraph.mockup.forms.comboBox;strokeColor=#999999;fillColor=#ddeeff;align=left;fillColor2=#aaddff;mainText=;fontColor=#666666;fontSize=17;spacingLeft=3;" parent="DUG7guWKxzSryjcp6mbN-40" vertex="1">
          <mxGeometry x="70" width="150" height="30" as="geometry" />
        </mxCell>
        <mxCell id="DUG7guWKxzSryjcp6mbN-42" value="" style="rounded=1;whiteSpace=wrap;html=1;" parent="DUG7guWKxzSryjcp6mbN-40" vertex="1">
          <mxGeometry x="290" width="130" height="30" as="geometry" />
        </mxCell>
        <mxCell id="DUG7guWKxzSryjcp6mbN-43" value="Group:" style="text;html=1;align=center;verticalAlign=middle;whiteSpace=wrap;rounded=0;" parent="DUG7guWKxzSryjcp6mbN-40" vertex="1">
          <mxGeometry width="60" height="30" as="geometry" />
        </mxCell>
        <mxCell id="DUG7guWKxzSryjcp6mbN-44" value="Deadline:" style="text;html=1;align=center;verticalAlign=middle;whiteSpace=wrap;rounded=0;" parent="DUG7guWKxzSryjcp6mbN-40" vertex="1">
          <mxGeometry x="230" width="60" height="30" as="geometry" />
        </mxCell>
        <mxCell id="DUG7guWKxzSryjcp6mbN-45" value="Filter" style="strokeWidth=1;shadow=0;dashed=0;align=center;html=1;shape=mxgraph.mockup.buttons.button;strokeColor=#666666;fontColor=#ffffff;mainText=;buttonStyle=round;fontSize=17;fontStyle=1;fillColor=#008cff;whiteSpace=wrap;" parent="DUG7guWKxzSryjcp6mbN-40" vertex="1">
          <mxGeometry x="660" width="120" height="30" as="geometry" />
        </mxCell>
        <mxCell id="DUG7guWKxzSryjcp6mbN-46" value="" style="rounded=1;whiteSpace=wrap;html=1;" parent="DUG7guWKxzSryjcp6mbN-40" vertex="1">
          <mxGeometry x="500" width="130" height="30" as="geometry" />
        </mxCell>
        <mxCell id="DUG7guWKxzSryjcp6mbN-47" value="End Date:" style="text;html=1;align=center;verticalAlign=middle;whiteSpace=wrap;rounded=0;" parent="DUG7guWKxzSryjcp6mbN-40" vertex="1">
          <mxGeometry x="440" width="60" height="30" as="geometry" />
        </mxCell>
        <mxCell id="DUG7guWKxzSryjcp6mbN-74" value="" style="rounded=1;whiteSpace=wrap;html=1;" parent="DUG7guWKxzSryjcp6mbN-34" vertex="1">
          <mxGeometry x="380" y="250" width="130" height="30" as="geometry" />
        </mxCell>
        <mxCell id="DUG7guWKxzSryjcp6mbN-75" value="Start Date:" style="text;html=1;align=center;verticalAlign=middle;whiteSpace=wrap;rounded=0;" parent="DUG7guWKxzSryjcp6mbN-34" vertex="1">
          <mxGeometry x="320" y="250" width="60" height="30" as="geometry" />
        </mxCell>
        <mxCell id="DUG7guWKxzSryjcp6mbN-111" value="CALENDAR" style="rounded=1;whiteSpace=wrap;html=1;fontStyle=1;fontSize=30;" parent="DUG7guWKxzSryjcp6mbN-34" vertex="1">
          <mxGeometry x="50" y="390" width="840" height="410" as="geometry" />
        </mxCell>
      </root>
    </mxGraphModel>
  </diagram>
</mxfile>
